solid OpenSCAD_Model
  facet normal 0 1 0
    outer loop
      vertex -3 108.7 -7
      vertex -4.5 108.7 -7.25
      vertex -4.25 108.7 -7
    endloop
  endfacet
  facet normal 0 1 0
    outer loop
      vertex -3.29999 108.7 -10
      vertex -3 108.7 -7
      vertex -0.549987 108.7 -10
    endloop
  endfacet
  facet normal 0 1 0
    outer loop
      vertex -3 108.7 -7
      vertex -3.29999 108.7 -10
      vertex -4.5 108.7 -7.25
    endloop
  endfacet
  facet normal 0 1 0
    outer loop
      vertex 0.342502 108.7 -1.5
      vertex -3 108.7 -7
      vertex -0.25 108.7 -1.5
    endloop
  endfacet
  facet normal -0 1 0
    outer loop
      vertex -3 108.7 -7
      vertex 0.342502 108.7 -1.5
      vertex -0.549987 108.7 -10
    endloop
  endfacet
  facet normal 0 1 0
    outer loop
      vertex -0.25 108.7 -1.5
      vertex -3 108.7 -7
      vertex -2.5 108.7 -1.5
    endloop
  endfacet
  facet normal 0 1 -0
    outer loop
      vertex -2.5 108.7 -1.5
      vertex -3 108.7 0
      vertex -2.5 108.7 0
    endloop
  endfacet
  facet normal 0 1 0
    outer loop
      vertex -3 108.7 0
      vertex -2.5 108.7 -1.5
      vertex -3 108.7 -7
    endloop
  endfacet
  facet normal 0 -1 -1.38716e-06
    outer loop
      vertex -3 103.7 -7
      vertex 0.342502 103.7 -1.5
      vertex -0.25 103.7 -1.5
    endloop
  endfacet
  facet normal -9.73859e-07 -1 -7.95322e-07
    outer loop
      vertex 0.342502 103.7 -1.5
      vertex -3 103.7 -7
      vertex -0.549987 103.7 -10
    endloop
  endfacet
  facet normal 0 -1 0
    outer loop
      vertex -4.5 103.7 -7.25
      vertex -3 103.7 -7
      vertex -4.25 103.7 -7
    endloop
  endfacet
  facet normal 0 -1 0
    outer loop
      vertex -3.29999 103.7 -10
      vertex -3 103.7 -7
      vertex -4.5 103.7 -7.25
    endloop
  endfacet
  facet normal 0 -1 -0
    outer loop
      vertex -3 103.7 -7
      vertex -3.29999 103.7 -10
      vertex -0.549987 103.7 -10
    endloop
  endfacet
  facet normal 0 -1 0
    outer loop
      vertex -3 103.7 0
      vertex -2.5 103.7 -1.5
      vertex -2.5 103.7 0
    endloop
  endfacet
  facet normal 0 -1 -1.38716e-06
    outer loop
      vertex -2.5 103.7 -1.5
      vertex -3 103.7 -7
      vertex -0.25 103.7 -1.5
    endloop
  endfacet
  facet normal -3.26975e-06 -1 -1.08991e-06
    outer loop
      vertex -3 103.7 -7
      vertex -2.5 103.7 -1.5
      vertex -3 103.7 0
    endloop
  endfacet
  facet normal -0 0 1
    outer loop
      vertex -4.25 108.7 -7
      vertex -3 103.7 -7
      vertex -3 108.7 -7
    endloop
  endfacet
  facet normal 0 0 1
    outer loop
      vertex -3 103.7 -7
      vertex -4.25 108.7 -7
      vertex -4.25 103.7 -7
    endloop
  endfacet
  facet normal -0.707107 1.3487e-07 0.707107
    outer loop
      vertex -4.5 103.7 -7.25
      vertex -4.25 108.7 -7
      vertex -4.5 108.7 -7.25
    endloop
  endfacet
  facet normal -0.707107 1.3487e-07 0.707107
    outer loop
      vertex -4.25 108.7 -7
      vertex -4.5 103.7 -7.25
      vertex -4.25 103.7 -7
    endloop
  endfacet
  facet normal -0.916538 1.74816e-07 -0.399948
    outer loop
      vertex -4.5 108.7 -7.25
      vertex -3.29999 108.7 -10
      vertex -4.5 103.7 -7.25
    endloop
  endfacet
  facet normal -0.916538 -0 -0.399948
    outer loop
      vertex -3.29999 108.7 -10
      vertex -3.29999 103.7 -10
      vertex -4.5 103.7 -7.25
    endloop
  endfacet
  facet normal 0 0 -1
    outer loop
      vertex -3.29999 103.7 -10
      vertex -0.549987 108.7 -10
      vertex -0.549987 103.7 -10
    endloop
  endfacet
  facet normal -0 0 -1
    outer loop
      vertex -0.549987 108.7 -10
      vertex -3.29999 103.7 -10
      vertex -3.29999 108.7 -10
    endloop
  endfacet
  facet normal 0.994533 0 -0.104425
    outer loop
      vertex 0.342502 108.7 -1.5
      vertex -0.549987 103.7 -10
      vertex -0.549987 108.7 -10
    endloop
  endfacet
  facet normal 0.994533 0 -0.104425
    outer loop
      vertex -0.549987 103.7 -10
      vertex 0.342502 108.7 -1.5
      vertex 0.342502 103.7 -1.5
    endloop
  endfacet
  facet normal 0 0 -1
    outer loop
      vertex -2.5 108.7 0
      vertex -3 108.7 0
      vertex -2.5 137.1 0
    endloop
  endfacet
  facet normal 0 0 -1
    outer loop
      vertex 55.84 33.9 0
      vertex 56.34 103.7 0
      vertex 56.34 33.9 0
    endloop
  endfacet
  facet normal -0 0 -1
    outer loop
      vertex 56.34 103.7 0
      vertex 55.84 33.9 0
      vertex 55.84 103.7 0
    endloop
  endfacet
  facet normal 0 0 -1
    outer loop
      vertex 59.34 -3 0
      vertex 55.84 0.5 0
      vertex 56.34 28.9 0
    endloop
  endfacet
  facet normal 0 0 -1
    outer loop
      vertex 59.34 -3 0
      vertex 55.7824 -0.0852709 0
      vertex 55.84 0.5 0
    endloop
  endfacet
  facet normal 0 0 -1
    outer loop
      vertex 59.34 -3 0
      vertex 55.6116 -0.648049 0
      vertex 55.7824 -0.0852709 0
    endloop
  endfacet
  facet normal 0 0 -1
    outer loop
      vertex 59.34 -3 0
      vertex 55.3344 -1.16671 0
      vertex 55.6116 -0.648049 0
    endloop
  endfacet
  facet normal 0 0 -1
    outer loop
      vertex 59.34 -3 0
      vertex 54.9613 -1.62132 0
      vertex 55.3344 -1.16671 0
    endloop
  endfacet
  facet normal 0 0 -1
    outer loop
      vertex 56.34 -6 0
      vertex 54.5067 -1.99441 0
      vertex 54.9613 -1.62132 0
    endloop
  endfacet
  facet normal 0 0 -1
    outer loop
      vertex 56.34 -6 0
      vertex 53.988 -2.27164 0
      vertex 54.5067 -1.99441 0
    endloop
  endfacet
  facet normal 0 0 -1
    outer loop
      vertex 56.34 -6 0
      vertex 53.4253 -2.44236 0
      vertex 53.988 -2.27164 0
    endloop
  endfacet
  facet normal 0 0 -1
    outer loop
      vertex 56.34 -6 0
      vertex 52.84 -2.5 0
      vertex 53.4253 -2.44236 0
    endloop
  endfacet
  facet normal 0 0 -1
    outer loop
      vertex 56.34 -6 0
      vertex 0.5 -2.5 0
      vertex 52.84 -2.5 0
    endloop
  endfacet
  facet normal 0 0 -1
    outer loop
      vertex -2.5 0.5 0
      vertex -3 28.9 0
      vertex -2.5 28.9 0
    endloop
  endfacet
  facet normal 0 0 -1
    outer loop
      vertex -6 -3 0
      vertex -3 33.9 0
      vertex -3 28.9 0
    endloop
  endfacet
  facet normal -0 0 -1
    outer loop
      vertex -3 33.9 0
      vertex -6 -3 0
      vertex -3 103.7 0
    endloop
  endfacet
  facet normal -0 0 -1
    outer loop
      vertex -2.5 0.5 0
      vertex -6 -3 0
      vertex -3 28.9 0
    endloop
  endfacet
  facet normal -0 0 -1
    outer loop
      vertex -2.44236 -0.0852709 0
      vertex -6 -3 0
      vertex -2.5 0.5 0
    endloop
  endfacet
  facet normal -0 0 -1
    outer loop
      vertex -2.27164 -0.648049 0
      vertex -6 -3 0
      vertex -2.44236 -0.0852709 0
    endloop
  endfacet
  facet normal -0 0 -1
    outer loop
      vertex -1.99441 -1.16671 0
      vertex -6 -3 0
      vertex -2.27164 -0.648049 0
    endloop
  endfacet
  facet normal -0 0 -1
    outer loop
      vertex -1.62132 -1.62132 0
      vertex -6 -3 0
      vertex -1.99441 -1.16671 0
    endloop
  endfacet
  facet normal 0 0 -1
    outer loop
      vertex -6 -3 0
      vertex -1.62132 -1.62132 0
      vertex -3 -6 0
    endloop
  endfacet
  facet normal -0 0 -1
    outer loop
      vertex -1.16671 -1.99441 0
      vertex -3 -6 0
      vertex -1.62132 -1.62132 0
    endloop
  endfacet
  facet normal -0 0 -1
    outer loop
      vertex -0.648049 -2.27164 0
      vertex -3 -6 0
      vertex -1.16671 -1.99441 0
    endloop
  endfacet
  facet normal -0 0 -1
    outer loop
      vertex -0.0852709 -2.44236 0
      vertex -3 -6 0
      vertex -0.648049 -2.27164 0
    endloop
  endfacet
  facet normal -0 0 -1
    outer loop
      vertex 0.5 -2.5 0
      vertex -3 -6 0
      vertex -0.0852709 -2.44236 0
    endloop
  endfacet
  facet normal 0 0 -1
    outer loop
      vertex -3 -6 0
      vertex 0.5 -2.5 0
      vertex 56.34 -6 0
    endloop
  endfacet
  facet normal 0 0 -1
    outer loop
      vertex 59.1116 -4.14805 0
      vertex 54.9613 -1.62132 0
      vertex 59.2824 -3.58527 0
    endloop
  endfacet
  facet normal 0 0 -1
    outer loop
      vertex 59.34 -3 0
      vertex 56.34 33.9 0
      vertex 59.34 140.6 0
    endloop
  endfacet
  facet normal 0 0 -1
    outer loop
      vertex 58.8344 -4.66671 0
      vertex 54.9613 -1.62132 0
      vertex 59.1116 -4.14805 0
    endloop
  endfacet
  facet normal 0 0 -1
    outer loop
      vertex 56.34 103.7 0
      vertex 59.34 140.6 0
      vertex 56.34 33.9 0
    endloop
  endfacet
  facet normal 0 0 -1
    outer loop
      vertex 58.4613 -5.12132 0
      vertex 54.9613 -1.62132 0
      vertex 58.8344 -4.66671 0
    endloop
  endfacet
  facet normal 0 0 -1
    outer loop
      vertex 56.34 108.7 0
      vertex 59.34 140.6 0
      vertex 56.34 103.7 0
    endloop
  endfacet
  facet normal 0 0 -1
    outer loop
      vertex 58.0067 -5.49441 0
      vertex 54.9613 -1.62132 0
      vertex 58.4613 -5.12132 0
    endloop
  endfacet
  facet normal 0 0 -1
    outer loop
      vertex 55.84 137.1 0
      vertex 59.34 140.6 0
      vertex 56.34 108.7 0
    endloop
  endfacet
  facet normal 0 0 -1
    outer loop
      vertex 57.488 -5.77164 0
      vertex 54.9613 -1.62132 0
      vertex 58.0067 -5.49441 0
    endloop
  endfacet
  facet normal 0 0 -1
    outer loop
      vertex 55.7824 137.685 0
      vertex 59.34 140.6 0
      vertex 55.84 137.1 0
    endloop
  endfacet
  facet normal 0 0 -1
    outer loop
      vertex 56.9253 -5.94236 0
      vertex 54.9613 -1.62132 0
      vertex 57.488 -5.77164 0
    endloop
  endfacet
  facet normal 0 0 -1
    outer loop
      vertex 55.6116 138.248 0
      vertex 59.34 140.6 0
      vertex 55.7824 137.685 0
    endloop
  endfacet
  facet normal 0 0 -1
    outer loop
      vertex 54.9613 -1.62132 0
      vertex 56.9253 -5.94236 0
      vertex 56.34 -6 0
    endloop
  endfacet
  facet normal 0 0 -1
    outer loop
      vertex 55.3344 138.767 0
      vertex 59.34 140.6 0
      vertex 55.6116 138.248 0
    endloop
  endfacet
  facet normal 0 0 -1
    outer loop
      vertex 59.2824 -3.58527 0
      vertex 54.9613 -1.62132 0
      vertex 59.34 -3 0
    endloop
  endfacet
  facet normal 0 0 -1
    outer loop
      vertex 59.34 -3 0
      vertex 56.34 28.9 0
      vertex 56.34 33.9 0
    endloop
  endfacet
  facet normal 0 0 -1
    outer loop
      vertex 54.9613 139.221 0
      vertex 59.34 140.6 0
      vertex 55.3344 138.767 0
    endloop
  endfacet
  facet normal -0 0 -1
    outer loop
      vertex 59.34 140.6 0
      vertex 54.9613 139.221 0
      vertex 59.2824 141.185 0
    endloop
  endfacet
  facet normal -0 0 -1
    outer loop
      vertex 59.2824 141.185 0
      vertex 54.9613 139.221 0
      vertex 59.1116 141.748 0
    endloop
  endfacet
  facet normal -0 0 -1
    outer loop
      vertex 59.1116 141.748 0
      vertex 54.9613 139.221 0
      vertex 58.8344 142.267 0
    endloop
  endfacet
  facet normal 0 0 -1
    outer loop
      vertex 55.84 137.1 0
      vertex 56.34 108.7 0
      vertex 55.84 108.7 0
    endloop
  endfacet
  facet normal -0 0 -1
    outer loop
      vertex 58.8344 142.267 0
      vertex 54.9613 139.221 0
      vertex 58.4613 142.721 0
    endloop
  endfacet
  facet normal -0 0 -1
    outer loop
      vertex 58.4613 142.721 0
      vertex 54.9613 139.221 0
      vertex 58.0067 143.094 0
    endloop
  endfacet
  facet normal -0 0 -1
    outer loop
      vertex 58.0067 143.094 0
      vertex 54.9613 139.221 0
      vertex 57.488 143.372 0
    endloop
  endfacet
  facet normal -0 0 -1
    outer loop
      vertex 57.488 143.372 0
      vertex 54.9613 139.221 0
      vertex 56.9253 143.542 0
    endloop
  endfacet
  facet normal -0 0 -1
    outer loop
      vertex 56.9253 143.542 0
      vertex 54.9613 139.221 0
      vertex 56.34 143.6 0
    endloop
  endfacet
  facet normal 0 0 -1
    outer loop
      vertex 54.5067 139.594 0
      vertex 56.34 143.6 0
      vertex 54.9613 139.221 0
    endloop
  endfacet
  facet normal 0 0 -1
    outer loop
      vertex 53.988 139.872 0
      vertex 56.34 143.6 0
      vertex 54.5067 139.594 0
    endloop
  endfacet
  facet normal 0 0 -1
    outer loop
      vertex 53.4253 140.042 0
      vertex 56.34 143.6 0
      vertex 53.988 139.872 0
    endloop
  endfacet
  facet normal 0 0 -1
    outer loop
      vertex 52.84 140.1 0
      vertex 56.34 143.6 0
      vertex 53.4253 140.042 0
    endloop
  endfacet
  facet normal 0 0 -1
    outer loop
      vertex 0.5 140.1 0
      vertex 56.34 143.6 0
      vertex 52.84 140.1 0
    endloop
  endfacet
  facet normal 0 0 -1
    outer loop
      vertex 0.5 140.1 0
      vertex -3 143.6 0
      vertex 56.34 143.6 0
    endloop
  endfacet
  facet normal 0 0 -1
    outer loop
      vertex -0.0852709 140.042 0
      vertex -3 143.6 0
      vertex 0.5 140.1 0
    endloop
  endfacet
  facet normal 0 0 -1
    outer loop
      vertex -0.648049 139.872 0
      vertex -3 143.6 0
      vertex -0.0852709 140.042 0
    endloop
  endfacet
  facet normal 0 0 -1
    outer loop
      vertex -1.16671 139.594 0
      vertex -3 143.6 0
      vertex -0.648049 139.872 0
    endloop
  endfacet
  facet normal 0 0 -1
    outer loop
      vertex -1.62132 139.221 0
      vertex -3 143.6 0
      vertex -1.16671 139.594 0
    endloop
  endfacet
  facet normal 0 0 -1
    outer loop
      vertex -6 140.6 0
      vertex -1.62132 139.221 0
      vertex -1.99441 138.767 0
    endloop
  endfacet
  facet normal 0 0 -1
    outer loop
      vertex -6 140.6 0
      vertex -1.99441 138.767 0
      vertex -2.27164 138.248 0
    endloop
  endfacet
  facet normal 0 0 -1
    outer loop
      vertex -6 140.6 0
      vertex -2.27164 138.248 0
      vertex -2.44236 137.685 0
    endloop
  endfacet
  facet normal 0 0 -1
    outer loop
      vertex -6 140.6 0
      vertex -2.44236 137.685 0
      vertex -2.5 137.1 0
    endloop
  endfacet
  facet normal 0 0 -1
    outer loop
      vertex -6 140.6 0
      vertex -2.5 137.1 0
      vertex -3 108.7 0
    endloop
  endfacet
  facet normal 0 0 -1
    outer loop
      vertex -6 140.6 0
      vertex -3 103.7 0
      vertex -6 -3 0
    endloop
  endfacet
  facet normal 0 0 -1
    outer loop
      vertex -6 -3 0
      vertex -3 -6 0
      vertex -3.58527 -5.94236 0
    endloop
  endfacet
  facet normal 0 0 -1
    outer loop
      vertex -3 103.7 0
      vertex -6 140.6 0
      vertex -3 108.7 0
    endloop
  endfacet
  facet normal 0 0 -1
    outer loop
      vertex -6 -3 0
      vertex -3.58527 -5.94236 0
      vertex -4.14805 -5.77164 0
    endloop
  endfacet
  facet normal 0 0 -1
    outer loop
      vertex -1.62132 139.221 0
      vertex -6 140.6 0
      vertex -5.94236 141.185 0
    endloop
  endfacet
  facet normal 0 0 -1
    outer loop
      vertex -6 -3 0
      vertex -4.14805 -5.77164 0
      vertex -4.66671 -5.49441 0
    endloop
  endfacet
  facet normal 0 0 -1
    outer loop
      vertex -1.62132 139.221 0
      vertex -3.58527 143.542 0
      vertex -3 143.6 0
    endloop
  endfacet
  facet normal 0 0 -1
    outer loop
      vertex -6 -3 0
      vertex -4.66671 -5.49441 0
      vertex -5.12132 -5.12132 0
    endloop
  endfacet
  facet normal 0 0 -1
    outer loop
      vertex -1.62132 139.221 0
      vertex -4.14805 143.372 0
      vertex -3.58527 143.542 0
    endloop
  endfacet
  facet normal 0 0 -1
    outer loop
      vertex -6 -3 0
      vertex -5.12132 -5.12132 0
      vertex -5.49441 -4.66671 0
    endloop
  endfacet
  facet normal 0 0 -1
    outer loop
      vertex -1.62132 139.221 0
      vertex -4.66671 143.094 0
      vertex -4.14805 143.372 0
    endloop
  endfacet
  facet normal 0 0 -1
    outer loop
      vertex -6 -3 0
      vertex -5.49441 -4.66671 0
      vertex -5.77164 -4.14805 0
    endloop
  endfacet
  facet normal 0 0 -1
    outer loop
      vertex -1.62132 139.221 0
      vertex -5.12132 142.721 0
      vertex -4.66671 143.094 0
    endloop
  endfacet
  facet normal 0 0 -1
    outer loop
      vertex -6 -3 0
      vertex -5.77164 -4.14805 0
      vertex -5.94236 -3.58527 0
    endloop
  endfacet
  facet normal 0 0 -1
    outer loop
      vertex -1.62132 139.221 0
      vertex -5.49441 142.267 0
      vertex -5.12132 142.721 0
    endloop
  endfacet
  facet normal 0 0 -1
    outer loop
      vertex -1.62132 139.221 0
      vertex -5.77164 141.748 0
      vertex -5.49441 142.267 0
    endloop
  endfacet
  facet normal 0 0 -1
    outer loop
      vertex -1.62132 139.221 0
      vertex -5.94236 141.185 0
      vertex -5.77164 141.748 0
    endloop
  endfacet
  facet normal -0 0 -1
    outer loop
      vertex 56.34 28.9 0
      vertex 55.84 0.5 0
      vertex 55.84 28.9 0
    endloop
  endfacet
  facet normal 0 0 -1
    outer loop
      vertex -3 33.9 0
      vertex -2.5 103.7 0
      vertex -2.5 33.9 0
    endloop
  endfacet
  facet normal -0 0 -1
    outer loop
      vertex -2.5 103.7 0
      vertex -3 33.9 0
      vertex -3 103.7 0
    endloop
  endfacet
  facet normal -1 0 0
    outer loop
      vertex -3 103.7 -7
      vertex -3 108.7 0
      vertex -3 108.7 -7
    endloop
  endfacet
  facet normal -1 -0 0
    outer loop
      vertex -3 108.7 0
      vertex -3 103.7 -7
      vertex -3 103.7 0
    endloop
  endfacet
  facet normal -1.28766e-05 -1 -6.43828e-06
    outer loop
      vertex 52.9975 103.7 -1.5
      vertex 56.34 103.7 -7
      vertex 53.59 103.7 -1.5
    endloop
  endfacet
  facet normal -9.73859e-07 -1 7.95322e-07
    outer loop
      vertex 56.34 103.7 -7
      vertex 52.9975 103.7 -1.5
      vertex 53.89 103.7 -10
    endloop
  endfacet
  facet normal 0 -1 0
    outer loop
      vertex 56.34 103.7 -7
      vertex 57.84 103.7 -7.25
      vertex 57.59 103.7 -7
    endloop
  endfacet
  facet normal 0 -1 0
    outer loop
      vertex 56.64 103.7 -10
      vertex 56.34 103.7 -7
      vertex 53.89 103.7 -10
    endloop
  endfacet
  facet normal 0 -1 0
    outer loop
      vertex 56.34 103.7 -7
      vertex 56.64 103.7 -10
      vertex 57.84 103.7 -7.25
    endloop
  endfacet
  facet normal 0 -1 0
    outer loop
      vertex 53.59 103.7 -1.5
      vertex 56.34 103.7 -7
      vertex 55.84 103.7 -1.5
    endloop
  endfacet
  facet normal 0 -1 5.08626e-06
    outer loop
      vertex 55.84 103.7 -1.5
      vertex 56.34 103.7 0
      vertex 55.84 103.7 0
    endloop
  endfacet
  facet normal 1.1989e-05 -1 1.08991e-06
    outer loop
      vertex 56.34 103.7 0
      vertex 55.84 103.7 -1.5
      vertex 56.34 103.7 -7
    endloop
  endfacet
  facet normal 0 1 0
    outer loop
      vertex 56.34 108.7 -7
      vertex 52.9975 108.7 -1.5
      vertex 53.59 108.7 -1.5
    endloop
  endfacet
  facet normal 0 1 0
    outer loop
      vertex 52.9975 108.7 -1.5
      vertex 56.34 108.7 -7
      vertex 53.89 108.7 -10
    endloop
  endfacet
  facet normal 0 1 0
    outer loop
      vertex 57.84 108.7 -7.25
      vertex 56.34 108.7 -7
      vertex 57.59 108.7 -7
    endloop
  endfacet
  facet normal 0 1 -0
    outer loop
      vertex 56.64 108.7 -10
      vertex 56.34 108.7 -7
      vertex 57.84 108.7 -7.25
    endloop
  endfacet
  facet normal 0 1 0
    outer loop
      vertex 56.34 108.7 -7
      vertex 56.64 108.7 -10
      vertex 53.89 108.7 -10
    endloop
  endfacet
  facet normal 0 1 0
    outer loop
      vertex 56.34 108.7 0
      vertex 55.84 108.7 -1.5
      vertex 55.84 108.7 0
    endloop
  endfacet
  facet normal 0 1 0
    outer loop
      vertex 55.84 108.7 -1.5
      vertex 56.34 108.7 -7
      vertex 53.59 108.7 -1.5
    endloop
  endfacet
  facet normal 0 1 -0
    outer loop
      vertex 56.34 108.7 -7
      vertex 55.84 108.7 -1.5
      vertex 56.34 108.7 0
    endloop
  endfacet
  facet normal -0 0 1
    outer loop
      vertex 56.34 108.7 -7
      vertex 57.59 103.7 -7
      vertex 57.59 108.7 -7
    endloop
  endfacet
  facet normal 0 0 1
    outer loop
      vertex 57.59 103.7 -7
      vertex 56.34 108.7 -7
      vertex 56.34 103.7 -7
    endloop
  endfacet
  facet normal 0.707107 -0 0.707107
    outer loop
      vertex 57.59 103.7 -7
      vertex 57.84 108.7 -7.25
      vertex 57.59 108.7 -7
    endloop
  endfacet
  facet normal 0.707107 0 0.707107
    outer loop
      vertex 57.84 108.7 -7.25
      vertex 57.59 103.7 -7
      vertex 57.84 103.7 -7.25
    endloop
  endfacet
  facet normal 0.916538 0 -0.399948
    outer loop
      vertex 57.84 103.7 -7.25
      vertex 56.64 108.7 -10
      vertex 57.84 108.7 -7.25
    endloop
  endfacet
  facet normal 0.916538 0 -0.399948
    outer loop
      vertex 56.64 108.7 -10
      vertex 57.84 103.7 -7.25
      vertex 56.64 103.7 -10
    endloop
  endfacet
  facet normal 0 0 -1
    outer loop
      vertex 53.89 103.7 -10
      vertex 56.64 108.7 -10
      vertex 56.64 103.7 -10
    endloop
  endfacet
  facet normal -0 0 -1
    outer loop
      vertex 56.64 108.7 -10
      vertex 53.89 103.7 -10
      vertex 53.89 108.7 -10
    endloop
  endfacet
  facet normal -0.994533 0 -0.104425
    outer loop
      vertex 53.89 108.7 -10
      vertex 52.9975 103.7 -1.5
      vertex 52.9975 108.7 -1.5
    endloop
  endfacet
  facet normal -0.994533 0 -0.104425
    outer loop
      vertex 52.9975 103.7 -1.5
      vertex 53.89 108.7 -10
      vertex 53.89 103.7 -10
    endloop
  endfacet
  facet normal 1 -0 0
    outer loop
      vertex 56.34 103.7 0
      vertex 56.34 108.7 -7
      vertex 56.34 108.7 0
    endloop
  endfacet
  facet normal 1 0 0
    outer loop
      vertex 56.34 108.7 -7
      vertex 56.34 103.7 0
      vertex 56.34 103.7 -7
    endloop
  endfacet
  facet normal 0 1 0
    outer loop
      vertex -3 33.9 -7
      vertex -4.5 33.9 -7.25
      vertex -4.25 33.9 -7
    endloop
  endfacet
  facet normal 0 1 0
    outer loop
      vertex -3.29999 33.9 -10
      vertex -3 33.9 -7
      vertex -0.549987 33.9 -10
    endloop
  endfacet
  facet normal 0 1 0
    outer loop
      vertex -3 33.9 -7
      vertex -3.29999 33.9 -10
      vertex -4.5 33.9 -7.25
    endloop
  endfacet
  facet normal 0 1 6.93581e-07
    outer loop
      vertex 0.342502 33.9 -1.5
      vertex -3 33.9 -7
      vertex -0.25 33.9 -1.5
    endloop
  endfacet
  facet normal 4.86929e-07 1 3.97661e-07
    outer loop
      vertex -3 33.9 -7
      vertex 0.342502 33.9 -1.5
      vertex -0.549987 33.9 -10
    endloop
  endfacet
  facet normal 0 1 6.93581e-07
    outer loop
      vertex -0.25 33.9 -1.5
      vertex -3 33.9 -7
      vertex -2.5 33.9 -1.5
    endloop
  endfacet
  facet normal 0 1 -0
    outer loop
      vertex -2.5 33.9 -1.5
      vertex -3 33.9 0
      vertex -2.5 33.9 0
    endloop
  endfacet
  facet normal 1.63487e-06 1 5.44957e-07
    outer loop
      vertex -3 33.9 0
      vertex -2.5 33.9 -1.5
      vertex -3 33.9 -7
    endloop
  endfacet
  facet normal 0 -1 -3.46791e-07
    outer loop
      vertex -3 28.9 -7
      vertex 0.342502 28.9 -1.5
      vertex -0.25 28.9 -1.5
    endloop
  endfacet
  facet normal -2.43465e-07 -1 -1.9883e-07
    outer loop
      vertex 0.342502 28.9 -1.5
      vertex -3 28.9 -7
      vertex -0.549987 28.9 -10
    endloop
  endfacet
  facet normal 0 -1 0
    outer loop
      vertex -4.5 28.9 -7.25
      vertex -3 28.9 -7
      vertex -4.25 28.9 -7
    endloop
  endfacet
  facet normal 0 -1 0
    outer loop
      vertex -3.29999 28.9 -10
      vertex -3 28.9 -7
      vertex -4.5 28.9 -7.25
    endloop
  endfacet
  facet normal 0 -1 -0
    outer loop
      vertex -3 28.9 -7
      vertex -3.29999 28.9 -10
      vertex -0.549987 28.9 -10
    endloop
  endfacet
  facet normal 0 -1 0
    outer loop
      vertex -3 28.9 0
      vertex -2.5 28.9 -1.5
      vertex -2.5 28.9 0
    endloop
  endfacet
  facet normal 0 -1 -3.46791e-07
    outer loop
      vertex -2.5 28.9 -1.5
      vertex -3 28.9 -7
      vertex -0.25 28.9 -1.5
    endloop
  endfacet
  facet normal -8.17437e-07 -1 -2.72478e-07
    outer loop
      vertex -3 28.9 -7
      vertex -2.5 28.9 -1.5
      vertex -3 28.9 0
    endloop
  endfacet
  facet normal -0 0 1
    outer loop
      vertex -4.25 33.9 -7
      vertex -3 28.9 -7
      vertex -3 33.9 -7
    endloop
  endfacet
  facet normal 0 0 1
    outer loop
      vertex -3 28.9 -7
      vertex -4.25 33.9 -7
      vertex -4.25 28.9 -7
    endloop
  endfacet
  facet normal -0.707107 1.3487e-07 0.707107
    outer loop
      vertex -4.5 28.9 -7.25
      vertex -4.25 33.9 -7
      vertex -4.5 33.9 -7.25
    endloop
  endfacet
  facet normal -0.707107 1.3487e-07 0.707107
    outer loop
      vertex -4.25 33.9 -7
      vertex -4.5 28.9 -7.25
      vertex -4.25 28.9 -7
    endloop
  endfacet
  facet normal -0.916538 1.74816e-07 -0.399948
    outer loop
      vertex -4.5 33.9 -7.25
      vertex -3.29999 33.9 -10
      vertex -4.5 28.9 -7.25
    endloop
  endfacet
  facet normal -0.916538 -0 -0.399948
    outer loop
      vertex -3.29999 33.9 -10
      vertex -3.29999 28.9 -10
      vertex -4.5 28.9 -7.25
    endloop
  endfacet
  facet normal 0 0 -1
    outer loop
      vertex -3.29999 28.9 -10
      vertex -0.549987 33.9 -10
      vertex -0.549987 28.9 -10
    endloop
  endfacet
  facet normal -0 0 -1
    outer loop
      vertex -0.549987 33.9 -10
      vertex -3.29999 28.9 -10
      vertex -3.29999 33.9 -10
    endloop
  endfacet
  facet normal 0.994533 0 -0.104425
    outer loop
      vertex 0.342502 33.9 -1.5
      vertex -0.549987 28.9 -10
      vertex -0.549987 33.9 -10
    endloop
  endfacet
  facet normal 0.994533 0 -0.104425
    outer loop
      vertex -0.549987 28.9 -10
      vertex 0.342502 33.9 -1.5
      vertex 0.342502 28.9 -1.5
    endloop
  endfacet
  facet normal -1 0 0
    outer loop
      vertex -3 28.9 -7
      vertex -3 33.9 0
      vertex -3 33.9 -7
    endloop
  endfacet
  facet normal -1 -0 0
    outer loop
      vertex -3 33.9 0
      vertex -3 28.9 -7
      vertex -3 28.9 0
    endloop
  endfacet
  facet normal 0 -1 3.46791e-07
    outer loop
      vertex 52.9975 28.9 -1.5
      vertex 56.34 28.9 -7
      vertex 53.59 28.9 -1.5
    endloop
  endfacet
  facet normal -2.43465e-07 -1 1.9883e-07
    outer loop
      vertex 56.34 28.9 -7
      vertex 52.9975 28.9 -1.5
      vertex 53.89 28.9 -10
    endloop
  endfacet
  facet normal 0 -1 0
    outer loop
      vertex 56.34 28.9 -7
      vertex 57.84 28.9 -7.25
      vertex 57.59 28.9 -7
    endloop
  endfacet
  facet normal 0 -1 0
    outer loop
      vertex 56.64 28.9 -10
      vertex 56.34 28.9 -7
      vertex 53.89 28.9 -10
    endloop
  endfacet
  facet normal 0 -1 0
    outer loop
      vertex 56.34 28.9 -7
      vertex 56.64 28.9 -10
      vertex 57.84 28.9 -7.25
    endloop
  endfacet
  facet normal 0 -1 3.46791e-07
    outer loop
      vertex 53.59 28.9 -1.5
      vertex 56.34 28.9 -7
      vertex 55.84 28.9 -1.5
    endloop
  endfacet
  facet normal 0 -1 0
    outer loop
      vertex 55.84 28.9 -1.5
      vertex 56.34 28.9 0
      vertex 55.84 28.9 0
    endloop
  endfacet
  facet normal -8.17435e-07 -1 2.72478e-07
    outer loop
      vertex 56.34 28.9 0
      vertex 55.84 28.9 -1.5
      vertex 56.34 28.9 -7
    endloop
  endfacet
  facet normal 0 1 -6.93581e-07
    outer loop
      vertex 56.34 33.9 -7
      vertex 52.9975 33.9 -1.5
      vertex 53.59 33.9 -1.5
    endloop
  endfacet
  facet normal 4.86929e-07 1 -3.97661e-07
    outer loop
      vertex 52.9975 33.9 -1.5
      vertex 56.34 33.9 -7
      vertex 53.89 33.9 -10
    endloop
  endfacet
  facet normal 0 1 0
    outer loop
      vertex 57.84 33.9 -7.25
      vertex 56.34 33.9 -7
      vertex 57.59 33.9 -7
    endloop
  endfacet
  facet normal 0 1 -0
    outer loop
      vertex 56.64 33.9 -10
      vertex 56.34 33.9 -7
      vertex 57.84 33.9 -7.25
    endloop
  endfacet
  facet normal 0 1 0
    outer loop
      vertex 56.34 33.9 -7
      vertex 56.64 33.9 -10
      vertex 53.89 33.9 -10
    endloop
  endfacet
  facet normal 0 1 0
    outer loop
      vertex 56.34 33.9 0
      vertex 55.84 33.9 -1.5
      vertex 55.84 33.9 0
    endloop
  endfacet
  facet normal 0 1 -6.93581e-07
    outer loop
      vertex 55.84 33.9 -1.5
      vertex 56.34 33.9 -7
      vertex 53.59 33.9 -1.5
    endloop
  endfacet
  facet normal 1.63487e-06 1 -5.44957e-07
    outer loop
      vertex 56.34 33.9 -7
      vertex 55.84 33.9 -1.5
      vertex 56.34 33.9 0
    endloop
  endfacet
  facet normal -0 0 1
    outer loop
      vertex 56.34 33.9 -7
      vertex 57.59 28.9 -7
      vertex 57.59 33.9 -7
    endloop
  endfacet
  facet normal 0 0 1
    outer loop
      vertex 57.59 28.9 -7
      vertex 56.34 33.9 -7
      vertex 56.34 28.9 -7
    endloop
  endfacet
  facet normal 0.707107 -0 0.707107
    outer loop
      vertex 57.59 28.9 -7
      vertex 57.84 33.9 -7.25
      vertex 57.59 33.9 -7
    endloop
  endfacet
  facet normal 0.707107 0 0.707107
    outer loop
      vertex 57.84 33.9 -7.25
      vertex 57.59 28.9 -7
      vertex 57.84 28.9 -7.25
    endloop
  endfacet
  facet normal 0.916538 0 -0.399948
    outer loop
      vertex 57.84 28.9 -7.25
      vertex 56.64 33.9 -10
      vertex 57.84 33.9 -7.25
    endloop
  endfacet
  facet normal 0.916538 0 -0.399948
    outer loop
      vertex 56.64 33.9 -10
      vertex 57.84 28.9 -7.25
      vertex 56.64 28.9 -10
    endloop
  endfacet
  facet normal 0 0 -1
    outer loop
      vertex 53.89 28.9 -10
      vertex 56.64 33.9 -10
      vertex 56.64 28.9 -10
    endloop
  endfacet
  facet normal -0 0 -1
    outer loop
      vertex 56.64 33.9 -10
      vertex 53.89 28.9 -10
      vertex 53.89 33.9 -10
    endloop
  endfacet
  facet normal -0.994533 0 -0.104425
    outer loop
      vertex 53.89 33.9 -10
      vertex 52.9975 28.9 -1.5
      vertex 52.9975 33.9 -1.5
    endloop
  endfacet
  facet normal -0.994533 0 -0.104425
    outer loop
      vertex 52.9975 28.9 -1.5
      vertex 53.89 33.9 -10
      vertex 53.89 28.9 -10
    endloop
  endfacet
  facet normal 1 -0 0
    outer loop
      vertex 56.34 28.9 0
      vertex 56.34 33.9 -7
      vertex 56.34 33.9 0
    endloop
  endfacet
  facet normal 1 0 0
    outer loop
      vertex 56.34 33.9 -7
      vertex 56.34 28.9 0
      vertex 56.34 28.9 -7
    endloop
  endfacet
  facet normal 0.995185 0.0980175 0
    outer loop
      vertex 59.34 140.6 3
      vertex 59.2824 141.185 0
      vertex 59.2824 141.185 3
    endloop
  endfacet
  facet normal 0.995185 0.0980175 0
    outer loop
      vertex 59.2824 141.185 0
      vertex 59.34 140.6 3
      vertex 59.34 140.6 0
    endloop
  endfacet
  facet normal -1 0 0
    outer loop
      vertex -6 -3 0
      vertex -6 140.6 3
      vertex -6 140.6 0
    endloop
  endfacet
  facet normal -1 -0 0
    outer loop
      vertex -6 140.6 3
      vertex -6 -3 0
      vertex -6 -3 3
    endloop
  endfacet
  facet normal -0.881922 0.471395 0
    outer loop
      vertex -5.77164 141.748 0
      vertex -5.49441 142.267 3
      vertex -5.49441 142.267 0
    endloop
  endfacet
  facet normal -0.881922 0.471395 0
    outer loop
      vertex -5.49441 142.267 3
      vertex -5.77164 141.748 0
      vertex -5.77164 141.748 3
    endloop
  endfacet
  facet normal 0 0 1
    outer loop
      vertex 56.34 143.6 3
      vertex 59.34 140.6 3
      vertex 59.2824 141.185 3
    endloop
  endfacet
  facet normal 0 0 1
    outer loop
      vertex 59.34 140.6 3
      vertex 36.6194 117.087 3
      vertex 59.34 -3 3
    endloop
  endfacet
  facet normal 0 0 1
    outer loop
      vertex 56.34 143.6 3
      vertex 59.2824 141.185 3
      vertex 59.1116 141.748 3
    endloop
  endfacet
  facet normal -0 0 1
    outer loop
      vertex 35.5355 115.464 3
      vertex 59.34 -3 3
      vertex 36.6194 117.087 3
    endloop
  endfacet
  facet normal 0 0 1
    outer loop
      vertex 56.34 143.6 3
      vertex 59.1116 141.748 3
      vertex 58.8344 142.267 3
    endloop
  endfacet
  facet normal -0 0 1
    outer loop
      vertex 33.9134 114.381 3
      vertex 59.34 -3 3
      vertex 35.5355 115.464 3
    endloop
  endfacet
  facet normal 0 0 1
    outer loop
      vertex 56.34 143.6 3
      vertex 58.8344 142.267 3
      vertex 58.4613 142.721 3
    endloop
  endfacet
  facet normal -0 0 1
    outer loop
      vertex 32 114 3
      vertex 59.34 -3 3
      vertex 33.9134 114.381 3
    endloop
  endfacet
  facet normal 0 0 1
    outer loop
      vertex 56.34 143.6 3
      vertex 58.4613 142.721 3
      vertex 58.0067 143.094 3
    endloop
  endfacet
  facet normal 0 0 1
    outer loop
      vertex -6 -3 3
      vertex 59.34 -3 3
      vertex 32 114 3
    endloop
  endfacet
  facet normal 0 0 1
    outer loop
      vertex 56.34 143.6 3
      vertex 58.0067 143.094 3
      vertex 57.488 143.372 3
    endloop
  endfacet
  facet normal 0 -0 1
    outer loop
      vertex 56.34 -6 3
      vertex 59.34 -3 3
      vertex -6 -3 3
    endloop
  endfacet
  facet normal 0 0 1
    outer loop
      vertex 56.34 143.6 3
      vertex 57.488 143.372 3
      vertex 56.9253 143.542 3
    endloop
  endfacet
  facet normal 0 0 1
    outer loop
      vertex 59.34 -3 3
      vertex 56.34 -6 3
      vertex 59.2824 -3.58527 3
    endloop
  endfacet
  facet normal 0 0 1
    outer loop
      vertex 59.34 140.6 3
      vertex 56.34 143.6 3
      vertex 35.5355 122.536 3
    endloop
  endfacet
  facet normal 0 0 1
    outer loop
      vertex 59.1116 -4.14805 3
      vertex 56.34 -6 3
      vertex 58.8344 -4.66671 3
    endloop
  endfacet
  facet normal 0 0 1
    outer loop
      vertex 59.34 140.6 3
      vertex 37 119 3
      vertex 36.6194 117.087 3
    endloop
  endfacet
  facet normal 0 0 1
    outer loop
      vertex 59.34 140.6 3
      vertex 36.6194 120.913 3
      vertex 37 119 3
    endloop
  endfacet
  facet normal 0 0 1
    outer loop
      vertex 59.34 140.6 3
      vertex 35.5355 122.536 3
      vertex 36.6194 120.913 3
    endloop
  endfacet
  facet normal 0 0 1
    outer loop
      vertex 56.34 143.6 3
      vertex 33.9134 123.619 3
      vertex 35.5355 122.536 3
    endloop
  endfacet
  facet normal 0 0 1
    outer loop
      vertex 56.34 143.6 3
      vertex 32 124 3
      vertex 33.9134 123.619 3
    endloop
  endfacet
  facet normal -0 0 1
    outer loop
      vertex -3 143.6 3
      vertex 32 124 3
      vertex 56.34 143.6 3
    endloop
  endfacet
  facet normal 0 0 1
    outer loop
      vertex 32 124 3
      vertex -3 143.6 3
      vertex 30.0866 123.619 3
    endloop
  endfacet
  facet normal -0 0 1
    outer loop
      vertex -6 140.6 3
      vertex 27.3806 120.913 3
      vertex -3 143.6 3
    endloop
  endfacet
  facet normal 0 0 1
    outer loop
      vertex 28.4645 122.536 3
      vertex -3 143.6 3
      vertex 27.3806 120.913 3
    endloop
  endfacet
  facet normal 0 0 1
    outer loop
      vertex 30.0866 123.619 3
      vertex -3 143.6 3
      vertex 28.4645 122.536 3
    endloop
  endfacet
  facet normal 0 0 1
    outer loop
      vertex 58.8344 -4.66671 3
      vertex 56.34 -6 3
      vertex 58.4613 -5.12132 3
    endloop
  endfacet
  facet normal 0 0 1
    outer loop
      vertex 58.0067 -5.49441 3
      vertex 56.34 -6 3
      vertex 57.488 -5.77164 3
    endloop
  endfacet
  facet normal 0 0 1
    outer loop
      vertex 57.488 -5.77164 3
      vertex 56.34 -6 3
      vertex 56.9253 -5.94236 3
    endloop
  endfacet
  facet normal 0 0 1
    outer loop
      vertex 58.4613 -5.12132 3
      vertex 56.34 -6 3
      vertex 58.0067 -5.49441 3
    endloop
  endfacet
  facet normal 0 0 1
    outer loop
      vertex -6 -3 3
      vertex 32 114 3
      vertex 30.0866 114.381 3
    endloop
  endfacet
  facet normal 0 0 1
    outer loop
      vertex -6 -3 3
      vertex 30.0866 114.381 3
      vertex 28.4645 115.464 3
    endloop
  endfacet
  facet normal 0 0 1
    outer loop
      vertex -6 140.6 3
      vertex 28.4645 115.464 3
      vertex 27.3806 117.087 3
    endloop
  endfacet
  facet normal 0 0 1
    outer loop
      vertex 27.3806 120.913 3
      vertex -6 140.6 3
      vertex 27 119 3
    endloop
  endfacet
  facet normal 0 0 1
    outer loop
      vertex 27 119 3
      vertex -6 140.6 3
      vertex 27.3806 117.087 3
    endloop
  endfacet
  facet normal 0 0 1
    outer loop
      vertex 28.4645 115.464 3
      vertex -6 140.6 3
      vertex -6 -3 3
    endloop
  endfacet
  facet normal 0 0 1
    outer loop
      vertex -6 140.6 3
      vertex -3 143.6 3
      vertex -3.58527 143.542 3
    endloop
  endfacet
  facet normal 0 0 1
    outer loop
      vertex 59.2824 -3.58527 3
      vertex 56.34 -6 3
      vertex 59.1116 -4.14805 3
    endloop
  endfacet
  facet normal 0 0 1
    outer loop
      vertex -6 140.6 3
      vertex -3.58527 143.542 3
      vertex -4.14805 143.372 3
    endloop
  endfacet
  facet normal 0 0 1
    outer loop
      vertex 56.34 -6 3
      vertex -6 -3 3
      vertex -3 -6 3
    endloop
  endfacet
  facet normal 0 0 1
    outer loop
      vertex -6 140.6 3
      vertex -4.14805 143.372 3
      vertex -4.66671 143.094 3
    endloop
  endfacet
  facet normal 0 0 1
    outer loop
      vertex -3 -6 3
      vertex -6 -3 3
      vertex -3.58527 -5.94236 3
    endloop
  endfacet
  facet normal 0 0 1
    outer loop
      vertex -6 140.6 3
      vertex -4.66671 143.094 3
      vertex -5.12132 142.721 3
    endloop
  endfacet
  facet normal 0 0 1
    outer loop
      vertex -3.58527 -5.94236 3
      vertex -6 -3 3
      vertex -4.14805 -5.77164 3
    endloop
  endfacet
  facet normal 0 0 1
    outer loop
      vertex -6 140.6 3
      vertex -5.12132 142.721 3
      vertex -5.49441 142.267 3
    endloop
  endfacet
  facet normal 0 0 1
    outer loop
      vertex -4.14805 -5.77164 3
      vertex -6 -3 3
      vertex -4.66671 -5.49441 3
    endloop
  endfacet
  facet normal 0 0 1
    outer loop
      vertex -6 140.6 3
      vertex -5.49441 142.267 3
      vertex -5.77164 141.748 3
    endloop
  endfacet
  facet normal 0 0 1
    outer loop
      vertex -4.66671 -5.49441 3
      vertex -6 -3 3
      vertex -5.12132 -5.12132 3
    endloop
  endfacet
  facet normal 0 0 1
    outer loop
      vertex -6 140.6 3
      vertex -5.77164 141.748 3
      vertex -5.94236 141.185 3
    endloop
  endfacet
  facet normal 0 0 1
    outer loop
      vertex -5.12132 -5.12132 3
      vertex -6 -3 3
      vertex -5.49441 -4.66671 3
    endloop
  endfacet
  facet normal 0 0 1
    outer loop
      vertex -5.49441 -4.66671 3
      vertex -6 -3 3
      vertex -5.77164 -4.14805 3
    endloop
  endfacet
  facet normal 0 0 1
    outer loop
      vertex -5.77164 -4.14805 3
      vertex -6 -3 3
      vertex -5.94236 -3.58527 3
    endloop
  endfacet
  facet normal 0.881922 -0.471396 0
    outer loop
      vertex 58.8344 -4.66671 3
      vertex 59.1116 -4.14805 0
      vertex 59.1116 -4.14805 3
    endloop
  endfacet
  facet normal 0.881922 -0.471396 0
    outer loop
      vertex 59.1116 -4.14805 0
      vertex 58.8344 -4.66671 3
      vertex 58.8344 -4.66671 0
    endloop
  endfacet
  facet normal 0.0980233 0.995184 -0
    outer loop
      vertex 56.9253 143.542 0
      vertex 56.34 143.6 3
      vertex 56.9253 143.542 3
    endloop
  endfacet
  facet normal 0.0980233 0.995184 0
    outer loop
      vertex 56.34 143.6 3
      vertex 56.9253 143.542 0
      vertex 56.34 143.6 0
    endloop
  endfacet
  facet normal 0 1 -0
    outer loop
      vertex 56.34 143.6 0
      vertex -3 143.6 3
      vertex 56.34 143.6 3
    endloop
  endfacet
  facet normal 0 1 0
    outer loop
      vertex -3 143.6 3
      vertex 56.34 143.6 0
      vertex -3 143.6 0
    endloop
  endfacet
  facet normal -0.995185 0.0980191 0
    outer loop
      vertex -6 140.6 0
      vertex -5.94236 141.185 3
      vertex -5.94236 141.185 0
    endloop
  endfacet
  facet normal -0.995185 0.0980191 0
    outer loop
      vertex -5.94236 141.185 3
      vertex -6 140.6 0
      vertex -6 140.6 3
    endloop
  endfacet
  facet normal -0.95694 0.290287 0
    outer loop
      vertex -5.94236 141.185 0
      vertex -5.77164 141.748 3
      vertex -5.77164 141.748 0
    endloop
  endfacet
  facet normal -0.95694 0.290287 0
    outer loop
      vertex -5.77164 141.748 3
      vertex -5.94236 141.185 0
      vertex -5.94236 141.185 3
    endloop
  endfacet
  facet normal 1 -0 0
    outer loop
      vertex 59.34 -3 3
      vertex 59.34 140.6 0
      vertex 59.34 140.6 3
    endloop
  endfacet
  facet normal 1 0 0
    outer loop
      vertex 59.34 140.6 0
      vertex 59.34 -3 3
      vertex 59.34 -3 0
    endloop
  endfacet
  facet normal 0.956939 -0.290288 0
    outer loop
      vertex 59.1116 -4.14805 3
      vertex 59.2824 -3.58527 0
      vertex 59.2824 -3.58527 3
    endloop
  endfacet
  facet normal 0.956939 -0.290288 0
    outer loop
      vertex 59.2824 -3.58527 0
      vertex 59.1116 -4.14805 3
      vertex 59.1116 -4.14805 0
    endloop
  endfacet
  facet normal 0 -1 0
    outer loop
      vertex -3 -6 0
      vertex 56.34 -6 3
      vertex -3 -6 3
    endloop
  endfacet
  facet normal 0 -1 -0
    outer loop
      vertex 56.34 -6 3
      vertex -3 -6 0
      vertex 56.34 -6 0
    endloop
  endfacet
  facet normal 0.634398 0.773006 -0
    outer loop
      vertex 58.4613 142.721 0
      vertex 58.0067 143.094 3
      vertex 58.4613 142.721 3
    endloop
  endfacet
  facet normal 0.634398 0.773006 0
    outer loop
      vertex 58.0067 143.094 3
      vertex 58.4613 142.721 0
      vertex 58.0067 143.094 0
    endloop
  endfacet
  facet normal 0.471405 0.881917 -0
    outer loop
      vertex 58.0067 143.094 0
      vertex 57.488 143.372 3
      vertex 58.0067 143.094 3
    endloop
  endfacet
  facet normal 0.471405 0.881917 0
    outer loop
      vertex 57.488 143.372 3
      vertex 58.0067 143.094 0
      vertex 57.488 143.372 0
    endloop
  endfacet
  facet normal 0.995185 -0.0980167 0
    outer loop
      vertex 59.2824 -3.58527 3
      vertex 59.34 -3 0
      vertex 59.34 -3 3
    endloop
  endfacet
  facet normal 0.995185 -0.0980167 0
    outer loop
      vertex 59.34 -3 0
      vertex 59.2824 -3.58527 3
      vertex 59.2824 -3.58527 0
    endloop
  endfacet
  facet normal -0.0980183 -0.995185 0
    outer loop
      vertex -3.58527 -5.94236 0
      vertex -3 -6 3
      vertex -3.58527 -5.94236 3
    endloop
  endfacet
  facet normal -0.0980183 -0.995185 -0
    outer loop
      vertex -3 -6 3
      vertex -3.58527 -5.94236 0
      vertex -3 -6 0
    endloop
  endfacet
  facet normal 0.881922 0.471395 0
    outer loop
      vertex 59.1116 141.748 3
      vertex 58.8344 142.267 0
      vertex 58.8344 142.267 3
    endloop
  endfacet
  facet normal 0.881922 0.471395 0
    outer loop
      vertex 58.8344 142.267 0
      vertex 59.1116 141.748 3
      vertex 59.1116 141.748 0
    endloop
  endfacet
  facet normal 0.956939 0.29029 0
    outer loop
      vertex 59.2824 141.185 3
      vertex 59.1116 141.748 0
      vertex 59.1116 141.748 3
    endloop
  endfacet
  facet normal 0.956939 0.29029 0
    outer loop
      vertex 59.1116 141.748 0
      vertex 59.2824 141.185 3
      vertex 59.2824 141.185 0
    endloop
  endfacet
  facet normal 0.773007 0.634397 0
    outer loop
      vertex 58.8344 142.267 3
      vertex 58.4613 142.721 0
      vertex 58.4613 142.721 3
    endloop
  endfacet
  facet normal 0.773007 0.634397 0
    outer loop
      vertex 58.4613 142.721 0
      vertex 58.8344 142.267 3
      vertex 58.8344 142.267 0
    endloop
  endfacet
  facet normal 0.290282 0.956941 -0
    outer loop
      vertex 57.488 143.372 0
      vertex 56.9253 143.542 3
      vertex 57.488 143.372 3
    endloop
  endfacet
  facet normal 0.290282 0.956941 0
    outer loop
      vertex 56.9253 143.542 3
      vertex 57.488 143.372 0
      vertex 56.9253 143.542 0
    endloop
  endfacet
  facet normal -0.290282 0.956941 0
    outer loop
      vertex -3.58527 143.542 0
      vertex -4.14805 143.372 3
      vertex -3.58527 143.542 3
    endloop
  endfacet
  facet normal -0.290282 0.956941 0
    outer loop
      vertex -4.14805 143.372 3
      vertex -3.58527 143.542 0
      vertex -4.14805 143.372 0
    endloop
  endfacet
  facet normal -0.0980231 0.995184 0
    outer loop
      vertex -3 143.6 0
      vertex -3.58527 143.542 3
      vertex -3 143.6 3
    endloop
  endfacet
  facet normal -0.0980231 0.995184 0
    outer loop
      vertex -3.58527 143.542 3
      vertex -3 143.6 0
      vertex -3.58527 143.542 0
    endloop
  endfacet
  facet normal 0.471395 -0.881922 0
    outer loop
      vertex 57.488 -5.77164 0
      vertex 58.0067 -5.49441 3
      vertex 57.488 -5.77164 3
    endloop
  endfacet
  facet normal 0.471395 -0.881922 0
    outer loop
      vertex 58.0067 -5.49441 3
      vertex 57.488 -5.77164 0
      vertex 58.0067 -5.49441 0
    endloop
  endfacet
  facet normal -0.471396 -0.881922 0
    outer loop
      vertex -4.66671 -5.49441 0
      vertex -4.14805 -5.77164 3
      vertex -4.66671 -5.49441 3
    endloop
  endfacet
  facet normal -0.471396 -0.881922 -0
    outer loop
      vertex -4.14805 -5.77164 3
      vertex -4.66671 -5.49441 0
      vertex -4.14805 -5.77164 0
    endloop
  endfacet
  facet normal -0.634393 -0.77301 0
    outer loop
      vertex -5.12132 -5.12132 0
      vertex -4.66671 -5.49441 3
      vertex -5.12132 -5.12132 3
    endloop
  endfacet
  facet normal -0.634393 -0.77301 -0
    outer loop
      vertex -4.66671 -5.49441 3
      vertex -5.12132 -5.12132 0
      vertex -4.66671 -5.49441 0
    endloop
  endfacet
  facet normal -0.290285 -0.95694 0
    outer loop
      vertex -4.14805 -5.77164 0
      vertex -3.58527 -5.94236 3
      vertex -4.14805 -5.77164 3
    endloop
  endfacet
  facet normal -0.290285 -0.95694 -0
    outer loop
      vertex -3.58527 -5.94236 3
      vertex -4.14805 -5.77164 0
      vertex -3.58527 -5.94236 0
    endloop
  endfacet
  facet normal -0.881922 -0.471396 0
    outer loop
      vertex -5.49441 -4.66671 0
      vertex -5.77164 -4.14805 3
      vertex -5.77164 -4.14805 0
    endloop
  endfacet
  facet normal -0.881922 -0.471396 0
    outer loop
      vertex -5.77164 -4.14805 3
      vertex -5.49441 -4.66671 0
      vertex -5.49441 -4.66671 3
    endloop
  endfacet
  facet normal -0.77301 -0.634393 0
    outer loop
      vertex -5.12132 -5.12132 0
      vertex -5.49441 -4.66671 3
      vertex -5.49441 -4.66671 0
    endloop
  endfacet
  facet normal -0.77301 -0.634393 0
    outer loop
      vertex -5.49441 -4.66671 3
      vertex -5.12132 -5.12132 0
      vertex -5.12132 -5.12132 3
    endloop
  endfacet
  facet normal -0.995185 -0.0980183 0
    outer loop
      vertex -5.94236 -3.58527 0
      vertex -6 -3 3
      vertex -6 -3 0
    endloop
  endfacet
  facet normal -0.995185 -0.0980183 0
    outer loop
      vertex -6 -3 3
      vertex -5.94236 -3.58527 0
      vertex -5.94236 -3.58527 3
    endloop
  endfacet
  facet normal -0.471406 0.881916 0
    outer loop
      vertex -4.14805 143.372 0
      vertex -4.66671 143.094 3
      vertex -4.14805 143.372 3
    endloop
  endfacet
  facet normal -0.471406 0.881916 0
    outer loop
      vertex -4.66671 143.094 3
      vertex -4.14805 143.372 0
      vertex -4.66671 143.094 0
    endloop
  endfacet
  facet normal -0.634397 0.773007 0
    outer loop
      vertex -4.66671 143.094 0
      vertex -5.12132 142.721 3
      vertex -4.66671 143.094 3
    endloop
  endfacet
  facet normal -0.634397 0.773007 0
    outer loop
      vertex -5.12132 142.721 3
      vertex -4.66671 143.094 0
      vertex -5.12132 142.721 0
    endloop
  endfacet
  facet normal -0.773007 0.634397 0
    outer loop
      vertex -5.49441 142.267 0
      vertex -5.12132 142.721 3
      vertex -5.12132 142.721 0
    endloop
  endfacet
  facet normal -0.773007 0.634397 0
    outer loop
      vertex -5.12132 142.721 3
      vertex -5.49441 142.267 0
      vertex -5.49441 142.267 3
    endloop
  endfacet
  facet normal 0.0980185 -0.995185 0
    outer loop
      vertex 56.34 -6 0
      vertex 56.9253 -5.94236 3
      vertex 56.34 -6 3
    endloop
  endfacet
  facet normal 0.0980185 -0.995185 0
    outer loop
      vertex 56.9253 -5.94236 3
      vertex 56.34 -6 0
      vertex 56.9253 -5.94236 0
    endloop
  endfacet
  facet normal 0.290285 -0.95694 0
    outer loop
      vertex 56.9253 -5.94236 0
      vertex 57.488 -5.77164 3
      vertex 56.9253 -5.94236 3
    endloop
  endfacet
  facet normal 0.290285 -0.95694 0
    outer loop
      vertex 57.488 -5.77164 3
      vertex 56.9253 -5.94236 0
      vertex 57.488 -5.77164 0
    endloop
  endfacet
  facet normal 0.634394 -0.77301 0
    outer loop
      vertex 58.0067 -5.49441 0
      vertex 58.4613 -5.12132 3
      vertex 58.0067 -5.49441 3
    endloop
  endfacet
  facet normal 0.634394 -0.77301 0
    outer loop
      vertex 58.4613 -5.12132 3
      vertex 58.0067 -5.49441 0
      vertex 58.4613 -5.12132 0
    endloop
  endfacet
  facet normal -0.95694 -0.290285 0
    outer loop
      vertex -5.77164 -4.14805 0
      vertex -5.94236 -3.58527 3
      vertex -5.94236 -3.58527 0
    endloop
  endfacet
  facet normal -0.95694 -0.290285 0
    outer loop
      vertex -5.94236 -3.58527 3
      vertex -5.77164 -4.14805 0
      vertex -5.77164 -4.14805 3
    endloop
  endfacet
  facet normal 0.77301 -0.634393 0
    outer loop
      vertex 58.4613 -5.12132 3
      vertex 58.8344 -4.66671 0
      vertex 58.8344 -4.66671 3
    endloop
  endfacet
  facet normal 0.77301 -0.634393 0
    outer loop
      vertex 58.8344 -4.66671 0
      vertex 58.4613 -5.12132 3
      vertex 58.4613 -5.12132 0
    endloop
  endfacet
  facet normal 0.995185 0.0980175 0
    outer loop
      vertex 55.84 137.1 0
      vertex 55.7824 137.685 -1.5
      vertex 55.7824 137.685 0
    endloop
  endfacet
  facet normal 0.995185 0.0980175 0
    outer loop
      vertex 55.7824 137.685 -1.5
      vertex 55.84 137.1 0
      vertex 55.84 137.1 -1.5
    endloop
  endfacet
  facet normal -1 0 0
    outer loop
      vertex -2.5 0.5 -1.5
      vertex -2.5 28.9 0
      vertex -2.5 28.9 -1.5
    endloop
  endfacet
  facet normal -1 -0 0
    outer loop
      vertex -2.5 28.9 0
      vertex -2.5 0.5 -1.5
      vertex -2.5 0.5 0
    endloop
  endfacet
  facet normal -1 0 0
    outer loop
      vertex -2.5 108.7 -1.5
      vertex -2.5 137.1 0
      vertex -2.5 137.1 -1.5
    endloop
  endfacet
  facet normal -1 -0 0
    outer loop
      vertex -2.5 137.1 0
      vertex -2.5 108.7 -1.5
      vertex -2.5 108.7 0
    endloop
  endfacet
  facet normal -1 0 0
    outer loop
      vertex -2.5 33.9 -1.5
      vertex -2.5 103.7 0
      vertex -2.5 103.7 -1.5
    endloop
  endfacet
  facet normal -1 -0 0
    outer loop
      vertex -2.5 103.7 0
      vertex -2.5 33.9 -1.5
      vertex -2.5 33.9 0
    endloop
  endfacet
  facet normal -0.881922 0.471395 0
    outer loop
      vertex -2.27164 138.248 -1.5
      vertex -1.99441 138.767 0
      vertex -1.99441 138.767 -1.5
    endloop
  endfacet
  facet normal -0.881922 0.471395 0
    outer loop
      vertex -1.99441 138.767 0
      vertex -2.27164 138.248 -1.5
      vertex -2.27164 138.248 0
    endloop
  endfacet
  facet normal 0.881922 -0.471396 0
    outer loop
      vertex 55.3344 -1.16671 0
      vertex 55.6116 -0.648049 -1.5
      vertex 55.6116 -0.648049 0
    endloop
  endfacet
  facet normal 0.881922 -0.471396 0
    outer loop
      vertex 55.6116 -0.648049 -1.5
      vertex 55.3344 -1.16671 0
      vertex 55.3344 -1.16671 -1.5
    endloop
  endfacet
  facet normal 0.0980233 0.995184 -0
    outer loop
      vertex 53.4253 140.042 -1.5
      vertex 52.84 140.1 0
      vertex 53.4253 140.042 0
    endloop
  endfacet
  facet normal 0.0980233 0.995184 0
    outer loop
      vertex 52.84 140.1 0
      vertex 53.4253 140.042 -1.5
      vertex 52.84 140.1 -1.5
    endloop
  endfacet
  facet normal 0 1 -0
    outer loop
      vertex 52.84 140.1 -1.5
      vertex 0.5 140.1 0
      vertex 52.84 140.1 0
    endloop
  endfacet
  facet normal 0 1 0
    outer loop
      vertex 0.5 140.1 0
      vertex 52.84 140.1 -1.5
      vertex 0.5 140.1 -1.5
    endloop
  endfacet
  facet normal -0.995185 0.0980191 0
    outer loop
      vertex -2.5 137.1 -1.5
      vertex -2.44236 137.685 0
      vertex -2.44236 137.685 -1.5
    endloop
  endfacet
  facet normal -0.995185 0.0980191 0
    outer loop
      vertex -2.44236 137.685 0
      vertex -2.5 137.1 -1.5
      vertex -2.5 137.1 0
    endloop
  endfacet
  facet normal -0.95694 0.290287 0
    outer loop
      vertex -2.44236 137.685 -1.5
      vertex -2.27164 138.248 0
      vertex -2.27164 138.248 -1.5
    endloop
  endfacet
  facet normal -0.95694 0.290287 0
    outer loop
      vertex -2.27164 138.248 0
      vertex -2.44236 137.685 -1.5
      vertex -2.44236 137.685 0
    endloop
  endfacet
  facet normal 1 -0 0
    outer loop
      vertex 55.84 108.7 0
      vertex 55.84 137.1 -1.5
      vertex 55.84 137.1 0
    endloop
  endfacet
  facet normal 1 0 0
    outer loop
      vertex 55.84 137.1 -1.5
      vertex 55.84 108.7 0
      vertex 55.84 108.7 -1.5
    endloop
  endfacet
  facet normal 1 -0 0
    outer loop
      vertex 55.84 0.5 0
      vertex 55.84 28.9 -1.5
      vertex 55.84 28.9 0
    endloop
  endfacet
  facet normal 1 0 0
    outer loop
      vertex 55.84 28.9 -1.5
      vertex 55.84 0.5 0
      vertex 55.84 0.5 -1.5
    endloop
  endfacet
  facet normal 1 -0 0
    outer loop
      vertex 55.84 33.9 0
      vertex 55.84 103.7 -1.5
      vertex 55.84 103.7 0
    endloop
  endfacet
  facet normal 1 0 0
    outer loop
      vertex 55.84 103.7 -1.5
      vertex 55.84 33.9 0
      vertex 55.84 33.9 -1.5
    endloop
  endfacet
  facet normal 0.956939 -0.290288 0
    outer loop
      vertex 55.6116 -0.648049 0
      vertex 55.7824 -0.0852709 -1.5
      vertex 55.7824 -0.0852709 0
    endloop
  endfacet
  facet normal 0.956939 -0.290288 0
    outer loop
      vertex 55.7824 -0.0852709 -1.5
      vertex 55.6116 -0.648049 0
      vertex 55.6116 -0.648049 -1.5
    endloop
  endfacet
  facet normal 0 -1 0
    outer loop
      vertex 0.5 -2.5 -1.5
      vertex 52.84 -2.5 0
      vertex 0.5 -2.5 0
    endloop
  endfacet
  facet normal 0 -1 -0
    outer loop
      vertex 52.84 -2.5 0
      vertex 0.5 -2.5 -1.5
      vertex 52.84 -2.5 -1.5
    endloop
  endfacet
  facet normal 0.634398 0.773006 -0
    outer loop
      vertex 54.9613 139.221 -1.5
      vertex 54.5067 139.594 0
      vertex 54.9613 139.221 0
    endloop
  endfacet
  facet normal 0.634398 0.773006 0
    outer loop
      vertex 54.5067 139.594 0
      vertex 54.9613 139.221 -1.5
      vertex 54.5067 139.594 -1.5
    endloop
  endfacet
  facet normal 0.471405 0.881917 -0
    outer loop
      vertex 54.5067 139.594 -1.5
      vertex 53.988 139.872 0
      vertex 54.5067 139.594 0
    endloop
  endfacet
  facet normal 0.471405 0.881917 0
    outer loop
      vertex 53.988 139.872 0
      vertex 54.5067 139.594 -1.5
      vertex 53.988 139.872 -1.5
    endloop
  endfacet
  facet normal 0.995185 -0.0980167 0
    outer loop
      vertex 55.7824 -0.0852709 0
      vertex 55.84 0.5 -1.5
      vertex 55.84 0.5 0
    endloop
  endfacet
  facet normal 0.995185 -0.0980167 0
    outer loop
      vertex 55.84 0.5 -1.5
      vertex 55.7824 -0.0852709 0
      vertex 55.7824 -0.0852709 -1.5
    endloop
  endfacet
  facet normal -0.0980183 -0.995185 0
    outer loop
      vertex -0.0852709 -2.44236 -1.5
      vertex 0.5 -2.5 0
      vertex -0.0852709 -2.44236 0
    endloop
  endfacet
  facet normal -0.0980183 -0.995185 -0
    outer loop
      vertex 0.5 -2.5 0
      vertex -0.0852709 -2.44236 -1.5
      vertex 0.5 -2.5 -1.5
    endloop
  endfacet
  facet normal 0 0 -1
    outer loop
      vertex 52.84 -2.5 -1.5
      vertex 55.84 0.5 -1.5
      vertex 55.7824 -0.0852709 -1.5
    endloop
  endfacet
  facet normal 0 0 -1
    outer loop
      vertex 52.84 -2.5 -1.5
      vertex 55.7824 -0.0852709 -1.5
      vertex 55.6116 -0.648049 -1.5
    endloop
  endfacet
  facet normal 0 0 -1
    outer loop
      vertex 52.84 -2.5 -1.5
      vertex 55.6116 -0.648049 -1.5
      vertex 55.3344 -1.16671 -1.5
    endloop
  endfacet
  facet normal 0 0 -1
    outer loop
      vertex 52.84 -2.5 -1.5
      vertex 55.3344 -1.16671 -1.5
      vertex 54.9613 -1.62132 -1.5
    endloop
  endfacet
  facet normal 0 0 -1
    outer loop
      vertex 52.84 -2.5 -1.5
      vertex 54.9613 -1.62132 -1.5
      vertex 54.5067 -1.99441 -1.5
    endloop
  endfacet
  facet normal 0 0 -1
    outer loop
      vertex 52.84 -2.5 -1.5
      vertex 54.5067 -1.99441 -1.5
      vertex 53.988 -2.27164 -1.5
    endloop
  endfacet
  facet normal 0 0 -1
    outer loop
      vertex 55.84 0.5 -1.5
      vertex 53.59 28.9 -1.5
      vertex 55.84 28.9 -1.5
    endloop
  endfacet
  facet normal 0 0 -1
    outer loop
      vertex 52.84 -2.5 -1.5
      vertex 53.988 -2.27164 -1.5
      vertex 53.4253 -2.44236 -1.5
    endloop
  endfacet
  facet normal 0 0 -1
    outer loop
      vertex 55.84 0.5 -1.5
      vertex 52.9975 28.9 -1.5
      vertex 53.59 28.9 -1.5
    endloop
  endfacet
  facet normal 0 0 -1
    outer loop
      vertex 0.342502 33.9 -1.5
      vertex 52.9975 33.9 -1.5
      vertex 52.9975 28.9 -1.5
    endloop
  endfacet
  facet normal -0 0 -1
    outer loop
      vertex 52.9975 33.9 -1.5
      vertex 0.342502 33.9 -1.5
      vertex 52.9975 103.7 -1.5
    endloop
  endfacet
  facet normal 0 0 -1
    outer loop
      vertex 0.342502 28.9 -1.5
      vertex 52.9975 28.9 -1.5
      vertex 52.84 -2.5 -1.5
    endloop
  endfacet
  facet normal -0 0 -1
    outer loop
      vertex 55.84 0.5 -1.5
      vertex 52.84 -2.5 -1.5
      vertex 52.9975 28.9 -1.5
    endloop
  endfacet
  facet normal 0 0 -1
    outer loop
      vertex 53.59 33.9 -1.5
      vertex 55.84 103.7 -1.5
      vertex 55.84 33.9 -1.5
    endloop
  endfacet
  facet normal 0 0 -1
    outer loop
      vertex 53.59 33.9 -1.5
      vertex 53.59 103.7 -1.5
      vertex 55.84 103.7 -1.5
    endloop
  endfacet
  facet normal 0 0 -1
    outer loop
      vertex 52.9975 33.9 -1.5
      vertex 53.59 103.7 -1.5
      vertex 53.59 33.9 -1.5
    endloop
  endfacet
  facet normal -0 0 -1
    outer loop
      vertex 53.59 103.7 -1.5
      vertex 52.9975 33.9 -1.5
      vertex 52.9975 103.7 -1.5
    endloop
  endfacet
  facet normal 0 0 -1
    outer loop
      vertex 53.59 108.7 -1.5
      vertex 55.84 137.1 -1.5
      vertex 55.84 108.7 -1.5
    endloop
  endfacet
  facet normal 0 0 -1
    outer loop
      vertex 52.9975 108.7 -1.5
      vertex 55.84 137.1 -1.5
      vertex 53.59 108.7 -1.5
    endloop
  endfacet
  facet normal 0 0 -1
    outer loop
      vertex 36.6194 120.913 -1.5
      vertex 55.84 137.1 -1.5
      vertex 52.9975 108.7 -1.5
    endloop
  endfacet
  facet normal 0 0 -1
    outer loop
      vertex 35.5355 122.536 -1.5
      vertex 55.84 137.1 -1.5
      vertex 36.6194 120.913 -1.5
    endloop
  endfacet
  facet normal 0 -0 -1
    outer loop
      vertex 52.84 140.1 -1.5
      vertex 55.84 137.1 -1.5
      vertex 35.5355 122.536 -1.5
    endloop
  endfacet
  facet normal 0 0 -1
    outer loop
      vertex 55.7824 137.685 -1.5
      vertex 52.84 140.1 -1.5
      vertex 55.6116 138.248 -1.5
    endloop
  endfacet
  facet normal 0 0 -1
    outer loop
      vertex 55.6116 138.248 -1.5
      vertex 52.84 140.1 -1.5
      vertex 55.3344 138.767 -1.5
    endloop
  endfacet
  facet normal 0 0 -1
    outer loop
      vertex 55.3344 138.767 -1.5
      vertex 52.84 140.1 -1.5
      vertex 54.9613 139.221 -1.5
    endloop
  endfacet
  facet normal 0 0 -1
    outer loop
      vertex 54.9613 139.221 -1.5
      vertex 52.84 140.1 -1.5
      vertex 54.5067 139.594 -1.5
    endloop
  endfacet
  facet normal 0 0 -1
    outer loop
      vertex 54.5067 139.594 -1.5
      vertex 52.84 140.1 -1.5
      vertex 53.988 139.872 -1.5
    endloop
  endfacet
  facet normal 0 0 -1
    outer loop
      vertex 0.342502 103.7 -1.5
      vertex 52.9975 103.7 -1.5
      vertex 0.342502 33.9 -1.5
    endloop
  endfacet
  facet normal 0 -0 -1
    outer loop
      vertex 37 119 -1.5
      vertex 52.9975 108.7 -1.5
      vertex 36.6194 117.087 -1.5
    endloop
  endfacet
  facet normal 0 0 -1
    outer loop
      vertex 36.6194 120.913 -1.5
      vertex 52.9975 108.7 -1.5
      vertex 37 119 -1.5
    endloop
  endfacet
  facet normal 0 0 -1
    outer loop
      vertex 52.9975 108.7 -1.5
      vertex 35.5355 115.464 -1.5
      vertex 36.6194 117.087 -1.5
    endloop
  endfacet
  facet normal 0 0 -1
    outer loop
      vertex 52.9975 103.7 -1.5
      vertex 35.5355 115.464 -1.5
      vertex 52.9975 108.7 -1.5
    endloop
  endfacet
  facet normal 0 -0 -1
    outer loop
      vertex 33.9134 114.381 -1.5
      vertex 52.9975 103.7 -1.5
      vertex 32 114 -1.5
    endloop
  endfacet
  facet normal 0 -0 -1
    outer loop
      vertex 35.5355 115.464 -1.5
      vertex 52.9975 103.7 -1.5
      vertex 33.9134 114.381 -1.5
    endloop
  endfacet
  facet normal -0 0 -1
    outer loop
      vertex 52.9975 103.7 -1.5
      vertex 0.342502 103.7 -1.5
      vertex 32 114 -1.5
    endloop
  endfacet
  facet normal -0 0 -1
    outer loop
      vertex 32 114 -1.5
      vertex 0.342502 103.7 -1.5
      vertex 30.0866 114.381 -1.5
    endloop
  endfacet
  facet normal -0 0 -1
    outer loop
      vertex 52.9975 28.9 -1.5
      vertex 0.342502 28.9 -1.5
      vertex 0.342502 33.9 -1.5
    endloop
  endfacet
  facet normal 0 0 -1
    outer loop
      vertex 0.342502 28.9 -1.5
      vertex 52.84 -2.5 -1.5
      vertex 0.5 -2.5 -1.5
    endloop
  endfacet
  facet normal 0 0 -1
    outer loop
      vertex -0.25 33.9 -1.5
      vertex 0.342502 103.7 -1.5
      vertex 0.342502 33.9 -1.5
    endloop
  endfacet
  facet normal 0 0 -1
    outer loop
      vertex -0.25 33.9 -1.5
      vertex -0.25 103.7 -1.5
      vertex 0.342502 103.7 -1.5
    endloop
  endfacet
  facet normal 0 0 -1
    outer loop
      vertex -2.5 33.9 -1.5
      vertex -0.25 103.7 -1.5
      vertex -0.25 33.9 -1.5
    endloop
  endfacet
  facet normal -0 0 -1
    outer loop
      vertex -0.25 103.7 -1.5
      vertex -2.5 33.9 -1.5
      vertex -2.5 103.7 -1.5
    endloop
  endfacet
  facet normal -0 0 -1
    outer loop
      vertex 28.4645 115.464 -1.5
      vertex 0.342502 108.7 -1.5
      vertex 27.3806 117.087 -1.5
    endloop
  endfacet
  facet normal -0 0 -1
    outer loop
      vertex 27.3806 117.087 -1.5
      vertex 0.342502 108.7 -1.5
      vertex 27 119 -1.5
    endloop
  endfacet
  facet normal 0 0 -1
    outer loop
      vertex -2.5 137.1 -1.5
      vertex 27 119 -1.5
      vertex 0.342502 108.7 -1.5
    endloop
  endfacet
  facet normal 0 0 -1
    outer loop
      vertex 27 119 -1.5
      vertex -2.5 137.1 -1.5
      vertex 0.5 140.1 -1.5
    endloop
  endfacet
  facet normal 0 0 -1
    outer loop
      vertex -2.5 137.1 -1.5
      vertex 0.342502 108.7 -1.5
      vertex -0.25 108.7 -1.5
    endloop
  endfacet
  facet normal 0 0 -1
    outer loop
      vertex 0.5 140.1 -1.5
      vertex -2.5 137.1 -1.5
      vertex -0.0852709 140.042 -1.5
    endloop
  endfacet
  facet normal 0 0 -1
    outer loop
      vertex -0.0852709 140.042 -1.5
      vertex -2.5 137.1 -1.5
      vertex -0.648049 139.872 -1.5
    endloop
  endfacet
  facet normal 0 0 -1
    outer loop
      vertex -0.648049 139.872 -1.5
      vertex -2.5 137.1 -1.5
      vertex -1.16671 139.594 -1.5
    endloop
  endfacet
  facet normal 0 0 -1
    outer loop
      vertex -1.16671 139.594 -1.5
      vertex -2.5 137.1 -1.5
      vertex -1.62132 139.221 -1.5
    endloop
  endfacet
  facet normal 0 0 -1
    outer loop
      vertex -1.62132 139.221 -1.5
      vertex -2.5 137.1 -1.5
      vertex -1.99441 138.767 -1.5
    endloop
  endfacet
  facet normal 0 0 -1
    outer loop
      vertex -1.99441 138.767 -1.5
      vertex -2.5 137.1 -1.5
      vertex -2.27164 138.248 -1.5
    endloop
  endfacet
  facet normal 0 0 -1
    outer loop
      vertex -2.5 137.1 -1.5
      vertex -0.25 108.7 -1.5
      vertex -2.5 108.7 -1.5
    endloop
  endfacet
  facet normal 0 0 -1
    outer loop
      vertex -2.27164 138.248 -1.5
      vertex -2.5 137.1 -1.5
      vertex -2.44236 137.685 -1.5
    endloop
  endfacet
  facet normal 0 0 -1
    outer loop
      vertex 53.988 139.872 -1.5
      vertex 52.84 140.1 -1.5
      vertex 53.4253 140.042 -1.5
    endloop
  endfacet
  facet normal 0 0 -1
    outer loop
      vertex 55.84 137.1 -1.5
      vertex 52.84 140.1 -1.5
      vertex 55.7824 137.685 -1.5
    endloop
  endfacet
  facet normal 0 0 -1
    outer loop
      vertex 33.9134 123.619 -1.5
      vertex 52.84 140.1 -1.5
      vertex 35.5355 122.536 -1.5
    endloop
  endfacet
  facet normal 0 0 -1
    outer loop
      vertex 32 124 -1.5
      vertex 52.84 140.1 -1.5
      vertex 33.9134 123.619 -1.5
    endloop
  endfacet
  facet normal 0 0 -1
    outer loop
      vertex 0.5 140.1 -1.5
      vertex 32 124 -1.5
      vertex 30.0866 123.619 -1.5
    endloop
  endfacet
  facet normal 0 0 -1
    outer loop
      vertex 0.5 140.1 -1.5
      vertex 30.0866 123.619 -1.5
      vertex 28.4645 122.536 -1.5
    endloop
  endfacet
  facet normal -0 0 -1
    outer loop
      vertex 30.0866 114.381 -1.5
      vertex 0.342502 103.7 -1.5
      vertex 28.4645 115.464 -1.5
    endloop
  endfacet
  facet normal 0 0 -1
    outer loop
      vertex 32 124 -1.5
      vertex 0.5 140.1 -1.5
      vertex 52.84 140.1 -1.5
    endloop
  endfacet
  facet normal 0 0 -1
    outer loop
      vertex 27.3806 120.913 -1.5
      vertex 0.5 140.1 -1.5
      vertex 28.4645 122.536 -1.5
    endloop
  endfacet
  facet normal 0 0 -1
    outer loop
      vertex 0.342502 108.7 -1.5
      vertex 28.4645 115.464 -1.5
      vertex 0.342502 103.7 -1.5
    endloop
  endfacet
  facet normal 0 0 -1
    outer loop
      vertex 27 119 -1.5
      vertex 0.5 140.1 -1.5
      vertex 27.3806 120.913 -1.5
    endloop
  endfacet
  facet normal 0 0 -1
    outer loop
      vertex -2.5 0.5 -1.5
      vertex 0.5 -2.5 -1.5
      vertex -0.0852709 -2.44236 -1.5
    endloop
  endfacet
  facet normal 0 0 -1
    outer loop
      vertex 0.5 -2.5 -1.5
      vertex -2.5 0.5 -1.5
      vertex 0.342502 28.9 -1.5
    endloop
  endfacet
  facet normal 0 0 -1
    outer loop
      vertex -2.5 0.5 -1.5
      vertex -0.0852709 -2.44236 -1.5
      vertex -0.648049 -2.27164 -1.5
    endloop
  endfacet
  facet normal 0 0 -1
    outer loop
      vertex -2.5 0.5 -1.5
      vertex -0.648049 -2.27164 -1.5
      vertex -1.16671 -1.99441 -1.5
    endloop
  endfacet
  facet normal 0 0 -1
    outer loop
      vertex -2.5 0.5 -1.5
      vertex -1.16671 -1.99441 -1.5
      vertex -1.62132 -1.62132 -1.5
    endloop
  endfacet
  facet normal 0 0 -1
    outer loop
      vertex -2.5 0.5 -1.5
      vertex -1.62132 -1.62132 -1.5
      vertex -1.99441 -1.16671 -1.5
    endloop
  endfacet
  facet normal 0 0 -1
    outer loop
      vertex -2.5 0.5 -1.5
      vertex -1.99441 -1.16671 -1.5
      vertex -2.27164 -0.648049 -1.5
    endloop
  endfacet
  facet normal 0 0 -1
    outer loop
      vertex -2.5 0.5 -1.5
      vertex -2.27164 -0.648049 -1.5
      vertex -2.44236 -0.0852709 -1.5
    endloop
  endfacet
  facet normal -0 0 -1
    outer loop
      vertex 0.342502 28.9 -1.5
      vertex -2.5 0.5 -1.5
      vertex -0.25 28.9 -1.5
    endloop
  endfacet
  facet normal -0 0 -1
    outer loop
      vertex -0.25 28.9 -1.5
      vertex -2.5 0.5 -1.5
      vertex -2.5 28.9 -1.5
    endloop
  endfacet
  facet normal 0.881922 0.471395 0
    outer loop
      vertex 55.6116 138.248 0
      vertex 55.3344 138.767 -1.5
      vertex 55.3344 138.767 0
    endloop
  endfacet
  facet normal 0.881922 0.471395 0
    outer loop
      vertex 55.3344 138.767 -1.5
      vertex 55.6116 138.248 0
      vertex 55.6116 138.248 -1.5
    endloop
  endfacet
  facet normal 0.956939 0.29029 0
    outer loop
      vertex 55.7824 137.685 0
      vertex 55.6116 138.248 -1.5
      vertex 55.6116 138.248 0
    endloop
  endfacet
  facet normal 0.956939 0.29029 0
    outer loop
      vertex 55.6116 138.248 -1.5
      vertex 55.7824 137.685 0
      vertex 55.7824 137.685 -1.5
    endloop
  endfacet
  facet normal 0.773007 0.634397 0
    outer loop
      vertex 55.3344 138.767 0
      vertex 54.9613 139.221 -1.5
      vertex 54.9613 139.221 0
    endloop
  endfacet
  facet normal 0.773007 0.634397 0
    outer loop
      vertex 54.9613 139.221 -1.5
      vertex 55.3344 138.767 0
      vertex 55.3344 138.767 -1.5
    endloop
  endfacet
  facet normal 0.290282 0.956941 -0
    outer loop
      vertex 53.988 139.872 -1.5
      vertex 53.4253 140.042 0
      vertex 53.988 139.872 0
    endloop
  endfacet
  facet normal 0.290282 0.956941 0
    outer loop
      vertex 53.4253 140.042 0
      vertex 53.988 139.872 -1.5
      vertex 53.4253 140.042 -1.5
    endloop
  endfacet
  facet normal -0.290282 0.956941 0
    outer loop
      vertex -0.0852709 140.042 -1.5
      vertex -0.648049 139.872 0
      vertex -0.0852709 140.042 0
    endloop
  endfacet
  facet normal -0.290282 0.956941 0
    outer loop
      vertex -0.648049 139.872 0
      vertex -0.0852709 140.042 -1.5
      vertex -0.648049 139.872 -1.5
    endloop
  endfacet
  facet normal -0.0980231 0.995184 0
    outer loop
      vertex 0.5 140.1 -1.5
      vertex -0.0852709 140.042 0
      vertex 0.5 140.1 0
    endloop
  endfacet
  facet normal -0.0980231 0.995184 0
    outer loop
      vertex -0.0852709 140.042 0
      vertex 0.5 140.1 -1.5
      vertex -0.0852709 140.042 -1.5
    endloop
  endfacet
  facet normal 0.471395 -0.881922 0
    outer loop
      vertex 53.988 -2.27164 -1.5
      vertex 54.5067 -1.99441 0
      vertex 53.988 -2.27164 0
    endloop
  endfacet
  facet normal 0.471395 -0.881922 0
    outer loop
      vertex 54.5067 -1.99441 0
      vertex 53.988 -2.27164 -1.5
      vertex 54.5067 -1.99441 -1.5
    endloop
  endfacet
  facet normal -0.471396 -0.881922 0
    outer loop
      vertex -1.16671 -1.99441 -1.5
      vertex -0.648049 -2.27164 0
      vertex -1.16671 -1.99441 0
    endloop
  endfacet
  facet normal -0.471396 -0.881922 -0
    outer loop
      vertex -0.648049 -2.27164 0
      vertex -1.16671 -1.99441 -1.5
      vertex -0.648049 -2.27164 -1.5
    endloop
  endfacet
  facet normal -0.634393 -0.77301 0
    outer loop
      vertex -1.62132 -1.62132 -1.5
      vertex -1.16671 -1.99441 0
      vertex -1.62132 -1.62132 0
    endloop
  endfacet
  facet normal -0.634393 -0.77301 -0
    outer loop
      vertex -1.16671 -1.99441 0
      vertex -1.62132 -1.62132 -1.5
      vertex -1.16671 -1.99441 -1.5
    endloop
  endfacet
  facet normal -0.290285 -0.95694 0
    outer loop
      vertex -0.648049 -2.27164 -1.5
      vertex -0.0852709 -2.44236 0
      vertex -0.648049 -2.27164 0
    endloop
  endfacet
  facet normal -0.290285 -0.95694 -0
    outer loop
      vertex -0.0852709 -2.44236 0
      vertex -0.648049 -2.27164 -1.5
      vertex -0.0852709 -2.44236 -1.5
    endloop
  endfacet
  facet normal -0.881922 -0.471396 0
    outer loop
      vertex -1.99441 -1.16671 -1.5
      vertex -2.27164 -0.648049 0
      vertex -2.27164 -0.648049 -1.5
    endloop
  endfacet
  facet normal -0.881922 -0.471396 0
    outer loop
      vertex -2.27164 -0.648049 0
      vertex -1.99441 -1.16671 -1.5
      vertex -1.99441 -1.16671 0
    endloop
  endfacet
  facet normal -0.77301 -0.634393 0
    outer loop
      vertex -1.62132 -1.62132 -1.5
      vertex -1.99441 -1.16671 0
      vertex -1.99441 -1.16671 -1.5
    endloop
  endfacet
  facet normal -0.77301 -0.634393 0
    outer loop
      vertex -1.99441 -1.16671 0
      vertex -1.62132 -1.62132 -1.5
      vertex -1.62132 -1.62132 0
    endloop
  endfacet
  facet normal -0.995185 -0.0980183 0
    outer loop
      vertex -2.44236 -0.0852709 -1.5
      vertex -2.5 0.5 0
      vertex -2.5 0.5 -1.5
    endloop
  endfacet
  facet normal -0.995185 -0.0980183 0
    outer loop
      vertex -2.5 0.5 0
      vertex -2.44236 -0.0852709 -1.5
      vertex -2.44236 -0.0852709 0
    endloop
  endfacet
  facet normal -0.471406 0.881916 0
    outer loop
      vertex -0.648049 139.872 -1.5
      vertex -1.16671 139.594 0
      vertex -0.648049 139.872 0
    endloop
  endfacet
  facet normal -0.471406 0.881916 0
    outer loop
      vertex -1.16671 139.594 0
      vertex -0.648049 139.872 -1.5
      vertex -1.16671 139.594 -1.5
    endloop
  endfacet
  facet normal -0.773007 0.634397 0
    outer loop
      vertex -1.99441 138.767 -1.5
      vertex -1.62132 139.221 0
      vertex -1.62132 139.221 -1.5
    endloop
  endfacet
  facet normal -0.773007 0.634397 0
    outer loop
      vertex -1.62132 139.221 0
      vertex -1.99441 138.767 -1.5
      vertex -1.99441 138.767 0
    endloop
  endfacet
  facet normal 0.0980185 -0.995185 0
    outer loop
      vertex 52.84 -2.5 -1.5
      vertex 53.4253 -2.44236 0
      vertex 52.84 -2.5 0
    endloop
  endfacet
  facet normal 0.0980185 -0.995185 0
    outer loop
      vertex 53.4253 -2.44236 0
      vertex 52.84 -2.5 -1.5
      vertex 53.4253 -2.44236 -1.5
    endloop
  endfacet
  facet normal 0.290285 -0.95694 0
    outer loop
      vertex 53.4253 -2.44236 -1.5
      vertex 53.988 -2.27164 0
      vertex 53.4253 -2.44236 0
    endloop
  endfacet
  facet normal 0.290285 -0.95694 0
    outer loop
      vertex 53.988 -2.27164 0
      vertex 53.4253 -2.44236 -1.5
      vertex 53.988 -2.27164 -1.5
    endloop
  endfacet
  facet normal 0.634394 -0.77301 0
    outer loop
      vertex 54.5067 -1.99441 -1.5
      vertex 54.9613 -1.62132 0
      vertex 54.5067 -1.99441 0
    endloop
  endfacet
  facet normal 0.634394 -0.77301 0
    outer loop
      vertex 54.9613 -1.62132 0
      vertex 54.5067 -1.99441 -1.5
      vertex 54.9613 -1.62132 -1.5
    endloop
  endfacet
  facet normal -0.95694 -0.290285 0
    outer loop
      vertex -2.27164 -0.648049 -1.5
      vertex -2.44236 -0.0852709 0
      vertex -2.44236 -0.0852709 -1.5
    endloop
  endfacet
  facet normal -0.95694 -0.290285 0
    outer loop
      vertex -2.44236 -0.0852709 0
      vertex -2.27164 -0.648049 -1.5
      vertex -2.27164 -0.648049 0
    endloop
  endfacet
  facet normal -0.634397 0.773007 0
    outer loop
      vertex -1.16671 139.594 -1.5
      vertex -1.62132 139.221 0
      vertex -1.16671 139.594 0
    endloop
  endfacet
  facet normal -0.634397 0.773007 0
    outer loop
      vertex -1.62132 139.221 0
      vertex -1.16671 139.594 -1.5
      vertex -1.62132 139.221 -1.5
    endloop
  endfacet
  facet normal 0.77301 -0.634393 0
    outer loop
      vertex 54.9613 -1.62132 0
      vertex 55.3344 -1.16671 -1.5
      vertex 55.3344 -1.16671 0
    endloop
  endfacet
  facet normal 0.77301 -0.634393 0
    outer loop
      vertex 55.3344 -1.16671 -1.5
      vertex 54.9613 -1.62132 0
      vertex 54.9613 -1.62132 -1.5
    endloop
  endfacet
  facet normal -0.980785 -0.195091 0
    outer loop
      vertex 37 119 -1.5
      vertex 36.6194 120.913 3
      vertex 36.6194 120.913 -1.5
    endloop
  endfacet
  facet normal -0.980785 -0.195091 0
    outer loop
      vertex 36.6194 120.913 3
      vertex 37 119 -1.5
      vertex 37 119 3
    endloop
  endfacet
  facet normal 0.195089 -0.980786 0
    outer loop
      vertex 30.0866 123.619 -1.5
      vertex 32 124 3
      vertex 30.0866 123.619 3
    endloop
  endfacet
  facet normal 0.195089 -0.980786 0
    outer loop
      vertex 32 124 3
      vertex 30.0866 123.619 -1.5
      vertex 32 124 -1.5
    endloop
  endfacet
  facet normal -0.195089 0.980786 0
    outer loop
      vertex 33.9134 114.381 -1.5
      vertex 32 114 3
      vertex 33.9134 114.381 3
    endloop
  endfacet
  facet normal -0.195089 0.980786 0
    outer loop
      vertex 32 114 3
      vertex 33.9134 114.381 -1.5
      vertex 32 114 -1.5
    endloop
  endfacet
  facet normal -0.55557 0.83147 0
    outer loop
      vertex 35.5355 115.464 -1.5
      vertex 33.9134 114.381 3
      vertex 35.5355 115.464 3
    endloop
  endfacet
  facet normal -0.55557 0.83147 0
    outer loop
      vertex 33.9134 114.381 3
      vertex 35.5355 115.464 -1.5
      vertex 33.9134 114.381 -1.5
    endloop
  endfacet
  facet normal -0.55557 -0.83147 0
    outer loop
      vertex 33.9134 123.619 -1.5
      vertex 35.5355 122.536 3
      vertex 33.9134 123.619 3
    endloop
  endfacet
  facet normal -0.55557 -0.83147 -0
    outer loop
      vertex 35.5355 122.536 3
      vertex 33.9134 123.619 -1.5
      vertex 35.5355 122.536 -1.5
    endloop
  endfacet
  facet normal -0.831471 -0.555568 0
    outer loop
      vertex 36.6194 120.913 -1.5
      vertex 35.5355 122.536 3
      vertex 35.5355 122.536 -1.5
    endloop
  endfacet
  facet normal -0.831471 -0.555568 0
    outer loop
      vertex 35.5355 122.536 3
      vertex 36.6194 120.913 -1.5
      vertex 36.6194 120.913 3
    endloop
  endfacet
  facet normal -0.195089 -0.980786 0
    outer loop
      vertex 32 124 -1.5
      vertex 33.9134 123.619 3
      vertex 32 124 3
    endloop
  endfacet
  facet normal -0.195089 -0.980786 -0
    outer loop
      vertex 33.9134 123.619 3
      vertex 32 124 -1.5
      vertex 33.9134 123.619 -1.5
    endloop
  endfacet
  facet normal 0.831471 -0.555569 0
    outer loop
      vertex 27.3806 120.913 3
      vertex 28.4645 122.536 -1.5
      vertex 28.4645 122.536 3
    endloop
  endfacet
  facet normal 0.831471 -0.555569 0
    outer loop
      vertex 28.4645 122.536 -1.5
      vertex 27.3806 120.913 3
      vertex 27.3806 120.913 -1.5
    endloop
  endfacet
  facet normal 0.980785 -0.19509 0
    outer loop
      vertex 27 119 3
      vertex 27.3806 120.913 -1.5
      vertex 27.3806 120.913 3
    endloop
  endfacet
  facet normal 0.980785 -0.19509 0
    outer loop
      vertex 27.3806 120.913 -1.5
      vertex 27 119 3
      vertex 27 119 -1.5
    endloop
  endfacet
  facet normal 0.55557 -0.83147 0
    outer loop
      vertex 28.4645 122.536 -1.5
      vertex 30.0866 123.619 3
      vertex 28.4645 122.536 3
    endloop
  endfacet
  facet normal 0.55557 -0.83147 0
    outer loop
      vertex 30.0866 123.619 3
      vertex 28.4645 122.536 -1.5
      vertex 30.0866 123.619 -1.5
    endloop
  endfacet
  facet normal 0.195089 0.980786 -0
    outer loop
      vertex 32 114 -1.5
      vertex 30.0866 114.381 3
      vertex 32 114 3
    endloop
  endfacet
  facet normal 0.195089 0.980786 0
    outer loop
      vertex 30.0866 114.381 3
      vertex 32 114 -1.5
      vertex 30.0866 114.381 -1.5
    endloop
  endfacet
  facet normal 0.831469 0.555571 0
    outer loop
      vertex 28.4645 115.464 3
      vertex 27.3806 117.087 -1.5
      vertex 27.3806 117.087 3
    endloop
  endfacet
  facet normal 0.831469 0.555571 0
    outer loop
      vertex 27.3806 117.087 -1.5
      vertex 28.4645 115.464 3
      vertex 28.4645 115.464 -1.5
    endloop
  endfacet
  facet normal 0.980785 0.19509 0
    outer loop
      vertex 27.3806 117.087 3
      vertex 27 119 -1.5
      vertex 27 119 3
    endloop
  endfacet
  facet normal 0.980785 0.19509 0
    outer loop
      vertex 27 119 -1.5
      vertex 27.3806 117.087 3
      vertex 27.3806 117.087 -1.5
    endloop
  endfacet
  facet normal -0.83147 0.55557 0
    outer loop
      vertex 35.5355 115.464 -1.5
      vertex 36.6194 117.087 3
      vertex 36.6194 117.087 -1.5
    endloop
  endfacet
  facet normal -0.83147 0.55557 0
    outer loop
      vertex 36.6194 117.087 3
      vertex 35.5355 115.464 -1.5
      vertex 35.5355 115.464 3
    endloop
  endfacet
  facet normal 0.55557 0.83147 -0
    outer loop
      vertex 30.0866 114.381 -1.5
      vertex 28.4645 115.464 3
      vertex 30.0866 114.381 3
    endloop
  endfacet
  facet normal 0.55557 0.83147 0
    outer loop
      vertex 28.4645 115.464 3
      vertex 30.0866 114.381 -1.5
      vertex 28.4645 115.464 -1.5
    endloop
  endfacet
  facet normal -0.980785 0.195091 0
    outer loop
      vertex 36.6194 117.087 -1.5
      vertex 37 119 3
      vertex 37 119 -1.5
    endloop
  endfacet
  facet normal -0.980785 0.195091 0
    outer loop
      vertex 37 119 3
      vertex 36.6194 117.087 -1.5
      vertex 36.6194 117.087 3
    endloop
  endfacet
endsolid OpenSCAD_Model
